<svg width="32" height="32" viewBox="0 0 32 32" fill="none" xmlns="http://www.w3.org/2000/svg">
<path fill-rule="evenodd" clip-rule="evenodd" d="M0.226663 0.202511L0 0.405022V15.9622V31.5193L0.226663 31.7218L0.453325 31.9243H11.7332C23.898 31.9243 23.297 31.9419 23.49 31.5811C23.537 31.4934 23.5615 29.8715 23.5615 26.8529V22.258L27.6338 15.588C29.8735 11.9195 31.7593 8.77745 31.8246 8.60568C32.2052 7.60305 31.9541 6.44274 31.1915 5.68017C30.1589 4.64756 28.4738 4.59481 27.4155 5.56205C27.1044 5.84645 26.7242 6.41963 25.3159 8.72734L23.5962 11.5454L23.5615 8.37548L23.5268 5.20568L21.0284 2.70239C19.6543 1.32562 18.4457 0.154347 18.3426 0.0995899C18.1826 0.0145741 16.859 0 9.3042 0H0.453325L0.226663 0.202511ZM17.33 3.6146L17.3502 5.84118L17.5768 6.04362L17.8035 6.24606H19.9885H22.1735V10.0613V13.8765L19.5101 18.2376C18.0451 20.6362 16.7968 22.695 16.736 22.8126C16.6337 23.0104 16.6374 23.151 16.783 24.6747L16.9406 26.323L16.653 26.4503C16.0583 26.7132 15.4572 26.8034 14.5047 26.7724C13.7543 26.7481 13.5091 26.7112 13.0473 26.5537C12.2695 26.2883 11.6724 25.9145 10.9228 25.2237C9.50213 23.9144 8.06047 23.6731 6.16611 24.4277C5.19943 24.8128 3.79684 25.7448 3.08993 26.4718C2.82482 26.7445 2.77915 26.8329 2.77915 27.0747C2.77915 27.3067 2.82003 27.3945 3.00429 27.5591C3.3889 27.9029 3.59329 27.8433 4.40514 27.1513C6.19026 25.6297 7.94083 25.0617 9.12619 25.6193C9.34508 25.7223 9.7805 26.0487 10.147 26.3845C11.6383 27.7508 13.2734 28.3164 15.3028 28.1683C16.3112 28.0947 17.3259 27.7742 17.8657 27.3589C18.0006 27.2552 18.8433 26.8737 19.7386 26.5111L21.3663 25.8518L21.7698 25.1924L22.1733 24.5331L22.1734 27.5347L22.1735 30.5363H11.7634H1.35331V15.9622V1.38801H9.33162H17.3099L17.33 3.6146ZM20.0221 3.64354L21.2351 4.85805H19.9693H18.7035V3.64354C18.7035 2.97555 18.7272 2.42902 18.7563 2.42902C18.7853 2.42902 19.3549 2.97555 20.0221 3.64354ZM3.00429 3.67116C2.81801 3.83758 2.77915 3.92253 2.77915 4.16404C2.77915 4.40555 2.81801 4.4905 3.00429 4.65692L3.22935 4.85805H9.3042C15.8291 4.85805 15.6678 4.86651 15.856 4.51486C15.9477 4.34344 15.9477 3.98464 15.856 3.81322C15.6678 3.46157 15.8291 3.47003 9.3042 3.47003H3.22935L3.00429 3.67116ZM29.7735 6.37549C30.3395 6.63269 30.7015 7.27486 30.6044 7.84963C30.5668 8.07227 29.9329 9.24958 29.7349 9.46473C29.7039 9.49839 29.1518 9.20593 28.5008 8.81097L27.3229 8.09621L27.7081 7.46612C28.1869 6.68301 28.3138 6.53817 28.6625 6.37723C29.0147 6.21469 29.4181 6.21407 29.7735 6.37549ZM3.00429 7.8352C2.81801 8.00162 2.77915 8.08657 2.77915 8.32808C2.77915 8.5696 2.81801 8.65454 3.00429 8.82097L3.22935 9.02209H9.3042C15.8291 9.02209 15.6678 9.03055 15.856 8.6789C15.9477 8.50748 15.9477 8.14868 15.856 7.97726C15.6678 7.62561 15.8291 7.63407 9.3042 7.63407H3.22935L3.00429 7.8352ZM27.7999 10.0109L28.9685 10.7221L28.8017 10.9999C28.7099 11.1526 28.6024 11.2699 28.5626 11.2605C28.5026 11.2462 26.3512 9.95254 26.28 9.88772C26.2541 9.86427 26.5665 9.30108 26.6059 9.30025C26.6199 9.2999 27.1572 9.61977 27.7999 10.0109ZM26.6432 11.7385C27.2194 12.0874 27.7311 12.4098 27.7802 12.4549C27.8516 12.5204 27.1855 13.6572 24.463 18.1161C22.5895 21.1846 21.0447 23.7072 21.0301 23.7218C21.0074 23.7445 19.882 23.0798 18.9381 22.4862L18.6523 22.3063L22.0612 16.7088C23.936 13.6302 25.4983 11.1097 25.5328 11.1077C25.5673 11.1058 26.067 11.3896 26.6432 11.7385ZM3.00429 11.9992C2.81801 12.1657 2.77915 12.2506 2.77915 12.4921C2.77915 12.7336 2.81801 12.8186 3.00429 12.985L3.22935 13.1861H10.6922C18.7204 13.1861 18.4419 13.1981 18.632 12.8429C18.7237 12.6715 18.7237 12.3127 18.632 12.1413C18.4419 11.7861 18.7204 11.7981 10.6922 11.7981H3.22935L3.00429 11.9992ZM3.00429 16.1633C2.81801 16.3297 2.77915 16.4146 2.77915 16.6562C2.77915 16.8977 2.81801 16.9826 3.00429 17.149L3.22935 17.3502H10.6922C18.7204 17.3502 18.4419 17.3622 18.632 17.007C18.7237 16.8356 18.7237 16.4768 18.632 16.3053C18.4419 15.9501 18.7204 15.9622 10.6922 15.9622H3.22935L3.00429 16.1633ZM3.00429 20.3273C2.81801 20.4937 2.77915 20.5787 2.77915 20.8202C2.77915 21.0617 2.81801 21.1467 3.00429 21.3131L3.22935 21.5142H9.3042C15.8291 21.5142 15.6678 21.5227 15.856 21.171C15.9477 20.9996 15.9477 20.6408 15.856 20.4694C15.6678 20.1177 15.8291 20.1262 9.3042 20.1262H3.22935L3.00429 20.3273ZM19.3468 24.3591C19.7564 24.6069 20.0912 24.8255 20.0908 24.8449C20.0905 24.8642 19.6843 25.0412 19.1883 25.238C18.1529 25.6488 18.2575 25.6969 18.184 24.776C18.1611 24.4898 18.1235 24.1026 18.1004 23.9158L18.0583 23.5761L18.3302 23.7423C18.4798 23.8337 18.9373 24.1113 19.3468 24.3591Z" fill="black"/>
</svg>
