<svg width="33" height="32" viewBox="0 0 33 32" fill="none" xmlns="http://www.w3.org/2000/svg">
<path fill-rule="evenodd" clip-rule="evenodd" d="M1.07398 0.0846859C0.746757 0.187827 0.188648 0.765738 0.0883068 1.10536C-0.0294356 1.50393 -0.0294356 25.1599 0.0883068 25.5584C0.196515 25.9247 0.748824 26.477 1.11505 26.5852C1.321 26.646 2.79058 26.6663 7.0033 26.6663C12.3184 26.6663 12.6154 26.6725 12.5831 26.7829C12.4561 27.2166 11.6968 29.7506 11.5342 30.2832L11.3357 30.9333H10.4718H9.60797V31.4666V32H16.0085H22.409V31.4666V30.9333H21.5451H20.6812L20.4827 30.2832C20.3201 29.7506 19.5608 27.2166 19.4339 26.7829C19.4015 26.6725 19.6991 26.6663 25.0261 26.6663C31.4205 26.6663 31.0575 26.6959 31.5629 26.1337C31.7215 25.9573 31.8868 25.6941 31.9304 25.5486C32.045 25.1663 32.045 1.49746 31.9304 1.11523C31.8868 0.969754 31.7215 0.706467 31.5629 0.53012C31.0381 -0.0535913 32.5286 -0.00332085 15.9799 0.0043464C5.48619 0.00921344 1.24086 0.0320819 1.07398 0.0846859ZM30.7793 1.22797L30.9429 1.39159V11.8955V22.3993H16.0085H1.07398V11.8955V1.39159L1.23766 1.22797L1.40127 1.06429H16.0085H30.6156L30.7793 1.22797ZM9.83599 3.24886C9.31655 4.47662 9.38389 4.39908 8.55136 4.72724L8.23986 4.85005L7.10711 4.39535L5.97436 3.94065L4.96281 4.94666L3.95127 5.95274L4.07268 6.25869C4.13942 6.42704 4.29016 6.80473 4.40757 7.09809C4.52498 7.39145 4.67472 7.76667 4.74033 7.93202L4.85961 8.23251L4.65026 8.73208C4.53511 9.00677 4.42124 9.26159 4.3971 9.29826C4.37304 9.33493 3.85586 9.57495 3.24788 9.83163L2.1424 10.2983V11.7318V13.1652L3.24788 13.6319C3.85586 13.8886 4.37304 14.1286 4.3971 14.1653C4.42124 14.202 4.53511 14.4568 4.65026 14.7315L4.85961 15.231L4.74033 15.5315C4.67472 15.6969 4.52498 16.0721 4.40757 16.3655C4.29016 16.6588 4.13942 17.0365 4.07268 17.2049L3.95127 17.5108L4.96281 18.5172L5.97436 19.5236L7.04111 19.0898C7.62782 18.8512 8.16786 18.6552 8.2412 18.6544C8.31454 18.6535 8.59576 18.748 8.86618 18.8643C9.1366 18.9807 9.38149 19.051 9.41036 19.0207C9.46916 18.9592 9.81719 18.1163 9.79118 18.0985C9.78212 18.0922 9.43369 17.9454 9.01693 17.7722L8.2592 17.4574L7.22705 17.8713L6.19491 18.285L5.69154 17.7817L5.18823 17.2783L5.59973 16.2519L6.01129 15.2254L5.6192 14.271L5.2271 13.3167L4.21729 12.8832L3.20748 12.4497V11.7318V11.0139L4.21729 10.5804L5.2271 10.1469L5.6192 9.19252L6.01129 8.23818L5.59973 7.2117L5.18823 6.18522L5.69154 5.68185L6.19491 5.17854L7.22585 5.59184L8.25687 6.00521L9.20741 5.60971L10.1579 5.21421L10.5907 4.206L11.0235 3.19779H11.7415H12.4594L12.8922 4.2058L13.3249 5.21381L14.281 5.60731L15.2371 6.00081L16.2618 5.58997L17.2866 5.17908L17.8147 5.70405L18.3428 6.22909L18.7093 5.86266L19.0757 5.49617L18.2921 4.71811L17.5086 3.94005L16.4418 4.37228C15.8551 4.60997 15.3286 4.80891 15.2717 4.81438C15.1729 4.82385 14.3137 4.49229 14.175 4.39115C14.1383 4.36441 13.8983 3.84531 13.6416 3.23759L13.1749 2.13271L11.7415 2.13298L10.308 2.13318L9.83599 3.24886ZM11.7415 7.01742C11.4134 7.12249 10.8559 7.70034 10.7558 8.03923C10.6391 8.43426 10.6391 19.8297 10.7558 20.2247C10.864 20.5909 11.4163 21.1432 11.7825 21.2514C11.9915 21.3132 14.0204 21.3325 20.288 21.3325C29.6036 21.3325 28.9145 21.3727 29.4294 20.7999C29.588 20.6236 29.7533 20.3603 29.7969 20.2148C29.91 19.8374 29.91 10.56 29.7969 10.1826C29.7533 10.0371 29.588 9.77383 29.4294 9.59748C28.9381 9.05097 29.0597 9.06491 24.7878 9.06491H21.0566L20.116 8.14057C19.5987 7.6322 19.0704 7.15963 18.942 7.09049C18.723 6.97248 18.5019 6.96408 15.3417 6.95368C13.0094 6.94601 11.9031 6.96561 11.7415 7.01742ZM8.79064 7.29944C7.66902 8.0519 6.93803 9.09718 6.55374 10.4984C6.47906 10.7706 6.44399 11.1647 6.44399 11.7318C6.44399 13.2272 6.9477 14.469 7.96804 15.4894C8.35694 15.8782 9.17514 16.4655 9.32808 16.4655C9.39709 16.4655 9.80799 15.701 9.80799 15.5726C9.80799 15.5566 9.65044 15.4469 9.45796 15.3287C9.26548 15.2106 8.90852 14.9114 8.66483 14.6638C7.09231 13.0662 7.09231 10.3973 8.66483 8.79975C8.90852 8.55214 9.26548 8.25291 9.45796 8.13484C9.65044 8.01669 9.80799 7.90695 9.80799 7.89095C9.80799 7.76254 9.39709 6.99808 9.32808 6.99808C9.27955 6.99808 9.03773 7.13369 8.79064 7.29944ZM19.3682 8.9225C19.8855 9.43087 20.4138 9.90344 20.5421 9.97258C20.761 10.0905 21.017 10.1004 24.6651 10.1317L28.5546 10.165L28.682 10.3224C28.8048 10.474 28.8094 10.6526 28.8094 15.2091V19.9385L28.6458 20.1021L28.4822 20.2658H20.2755H12.0688L11.9051 20.1021L11.7415 19.9385V14.132V8.32545L11.9051 8.16184L12.0688 7.99816H15.2481H18.4276L19.3682 8.9225ZM15.1415 13.4321L13.6423 14.9324L15.1585 16.4485L16.6746 17.9647L17.0575 17.5818L17.4404 17.1989L16.3085 16.0654L15.1765 14.932L16.2925 13.8145C16.9063 13.2 17.4086 12.6663 17.4086 12.6286C17.4086 12.5421 16.793 11.9318 16.7056 11.9318C16.67 11.9318 15.9661 12.6069 15.1415 13.4321ZM23.4565 12.2508C23.2838 12.4262 23.1423 12.5984 23.1423 12.6334C23.1423 12.6685 23.6446 13.2 24.2584 13.8145L25.3744 14.932L24.2424 16.0654L23.1105 17.1989L23.4934 17.5818L23.8763 17.9647L25.3924 16.4485L26.9086 14.9324L25.4094 13.4321C24.5848 12.6069 23.8788 11.9318 23.8405 11.9318C23.8021 11.9318 23.6293 12.0753 23.4565 12.2508ZM20.0862 14.9312C19.3771 16.2115 18.7951 17.2829 18.793 17.3123C18.7873 17.3905 19.6339 17.8604 19.6883 17.8092C19.75 17.7509 22.2753 13.2062 22.2941 13.1193C22.3091 13.0505 21.5652 12.5986 21.4422 12.6018C21.4055 12.6027 20.7954 13.651 20.0862 14.9312ZM30.9429 24.3691C30.9429 25.2391 30.9369 25.2782 30.7793 25.4358L30.6156 25.5995H16.0085H1.40127L1.23766 25.4358C1.07998 25.2782 1.07398 25.2391 1.07398 24.3691V23.466H16.0085H30.9429V24.3691ZM18.468 27.3163C18.6307 27.8489 19.39 30.3829 19.5169 30.8166C19.5491 30.9267 19.3509 30.9333 16.0085 30.9333C12.6657 30.9333 12.4679 30.9267 12.5008 30.8166C12.52 30.7524 12.7931 29.8298 13.1078 28.7664C13.4225 27.703 13.6929 26.7955 13.7087 26.7496C13.731 26.6851 14.2504 26.6663 16.0035 26.6663H18.2696L18.468 27.3163Z" fill="black"/>
</svg>
