<svg width="32" height="32" viewBox="0 0 32 32" fill="none" xmlns="http://www.w3.org/2000/svg">
<path fill-rule="evenodd" clip-rule="evenodd" d="M15.721 0.138025C15.246 0.301348 14.7408 0.636747 14.4726 0.966706C14.357 1.10889 13.918 1.82315 13.497 2.55391L12.7314 3.88263H7.59423C1.99242 3.88263 2.04851 3.87938 1.43124 4.24104C0.740116 4.64597 0.202502 5.3988 0.0572496 6.16489C0.0056016 6.43745 -0.00871727 9.06306 0.00478874 15.7629L0.023422 24.9858L0.161921 25.324C0.489692 26.1248 1.07545 26.7152 1.85392 27.0297L2.2119 27.1742L6.90823 27.1921L11.6046 27.2099L11.6403 27.6819C11.6779 28.1779 11.6057 29.3525 11.4987 29.988C11.4639 30.1943 11.4353 30.3702 11.4351 30.3788C11.4349 30.3874 10.632 30.3944 9.6507 30.3944C7.73985 30.3944 7.52163 30.4246 7.36919 30.7093C7.23769 30.955 7.2789 31.2639 7.46967 31.4631L7.64394 31.645H15.9993H24.3546L24.5289 31.4631C24.7197 31.2639 24.7609 30.955 24.6294 30.7093C24.4766 30.424 24.2603 30.3944 22.3252 30.3944H20.5184L20.4458 29.9411C20.3212 29.1636 20.2527 28.144 20.293 27.6673L20.3316 27.2099L25.0592 27.1921L29.7867 27.1742L30.1291 27.0342C30.9154 26.7126 31.5204 26.1114 31.8306 25.3437L31.9751 24.9858L31.9918 15.4228C32.0102 4.79885 32.0366 5.49672 31.5916 4.84068C31.3372 4.46539 30.8457 4.10385 30.413 3.97361C30.1584 3.89701 29.2491 3.88263 24.651 3.88263H19.1913L19.251 3.7255C19.5819 2.85523 19.3456 1.66364 18.6977 0.935317C17.972 0.119642 16.7367 -0.211255 15.721 0.138025ZM17.1703 1.35219C17.8788 1.6482 18.2608 2.34576 18.1212 3.08827C18.0786 3.31513 17.6923 4.10848 17.5257 4.31138C17.5156 4.32364 16.9026 3.98599 16.1633 3.56105L14.8193 2.78839L15.0422 2.38196C15.3186 1.87811 15.6413 1.52727 15.968 1.37545C16.2768 1.23195 16.8557 1.22076 17.1703 1.35219ZM15.6554 4.711C16.3088 5.0876 16.8518 5.40368 16.8621 5.41337C16.8787 5.42913 11.8354 14.1943 11.7741 14.2562C11.7603 14.2701 11.1441 13.9342 10.4047 13.51L9.06032 12.7386L9.20851 12.4843C9.29004 12.3445 10.4034 10.4152 11.6827 8.19705C12.962 5.97887 14.0495 4.10022 14.0994 4.02225C14.2069 3.85449 14.0445 3.78258 15.6554 4.711ZM11.8547 5.39893C10.2892 8.08831 7.70678 12.5931 7.64018 12.7508C7.56884 12.9197 7.55577 13.3942 7.57078 15.2727L7.58929 17.5866L7.7935 17.769L7.99772 17.9514H15.9955H23.9933L24.1782 17.7958C24.3974 17.6113 24.4588 17.3659 24.3507 17.1073C24.1827 16.7054 24.6962 16.7351 17.3334 16.7008L10.6206 16.6696L11.5374 16.1343L12.4541 15.599L15.4659 10.3818L18.4776 5.16445L24.2631 5.1485L30.0486 5.13256L30.2558 5.27356C30.3697 5.35109 30.5218 5.49397 30.5938 5.59108L30.7246 5.76759L30.7409 13.6728L30.7573 21.578H15.9993H1.24128L1.2576 13.9323L1.27398 6.28657L1.43055 5.98231C1.609 5.63553 1.92921 5.35084 2.28236 5.22497C2.47995 5.15457 3.39805 5.13819 7.26696 5.13594L12.0094 5.13318L11.8547 5.39893ZM16.9073 13.0898C16.6936 13.2755 16.6326 13.6383 16.7777 13.8598C16.9983 14.1965 17.0342 14.1997 20.5774 14.1996C23.5645 14.1995 23.8654 14.1901 24.0654 14.0902C24.4432 13.9014 24.5131 13.4139 24.2062 13.107L24.0483 12.9492H20.5587H17.0693L16.9073 13.0898ZM9.80465 14.6061C10.288 14.8813 10.6837 15.1239 10.684 15.1454C10.6845 15.1925 8.9472 16.2006 8.8656 16.2006C8.83347 16.2006 8.80858 15.7343 8.80858 15.1324C8.80858 14.4944 8.83221 14.0727 8.86723 14.0851C8.89949 14.0965 9.32131 14.331 9.80465 14.6061ZM30.745 23.8134C30.7271 24.6224 30.7026 24.8373 30.6075 25.017C30.4463 25.3218 30.1445 25.6288 29.8492 25.7885L29.5991 25.9237H15.9993H2.39948L2.14937 25.7885C1.81697 25.6088 1.5284 25.299 1.37271 24.9545C1.26347 24.713 1.24528 24.5426 1.24409 23.7508L1.24271 22.8286H16.0048H30.7668L30.745 23.8134ZM19.0446 28.1278C19.0481 28.6351 19.0958 29.3434 19.1508 29.702C19.2058 30.0606 19.2507 30.363 19.2507 30.3742C19.2507 30.3853 17.7716 30.3944 15.9638 30.3944C12.8624 30.3944 12.6787 30.3882 12.7101 30.285C12.8003 29.9876 12.8854 28.9529 12.8875 28.1278L12.89 27.2055H15.9642H19.0385L19.0446 28.1278Z" fill="black"/>
</svg>
