<svg width="32" height="32" viewBox="0 0 32 32" fill="none" xmlns="http://www.w3.org/2000/svg">
<path fill-rule="evenodd" clip-rule="evenodd" d="M15.0323 0.0469521C14.0877 0.169344 12.9946 0.501188 12.1659 0.917161C10.601 1.70257 9.15225 3.16374 8.34851 4.76737C7.87901 5.70411 7.46617 7.31347 7.46617 8.20707V8.53378H4.9574C3.18252 8.53378 2.36837 8.55752 2.17425 8.61485C1.80808 8.72304 1.25585 9.27527 1.14766 9.64144C1.08566 9.85123 1.0666 12.1393 1.0666 19.3575V28.7991H0.533298H0V29.708C0 30.2267 0.0347976 30.7346 0.0810612 30.8912C0.189254 31.2574 0.741484 31.8096 1.10766 31.9178C1.31945 31.9804 4.72015 31.9989 16.0115 31.9989C32.5096 31.9989 31.0267 32.0497 31.5512 31.4664C31.934 31.0406 31.9979 30.7891 31.9979 29.708V28.7991H31.4646H30.9313V19.3575C30.9313 12.1393 30.9122 9.85123 30.8502 9.64144C30.742 9.27527 30.1898 8.72304 29.8236 8.61485C29.6296 8.55752 28.8184 8.53378 27.0547 8.53378H24.5601L24.4768 7.74204C24.1622 4.75077 22.4052 2.20207 19.7384 0.86883C18.4385 0.218874 16.4222 -0.133236 15.0323 0.0469521ZM16.9699 1.13908C17.6774 1.23747 18.5295 1.49406 19.1651 1.80003C19.9653 2.18534 19.9402 2.14035 19.574 2.53185C19.0021 3.14328 18.7275 3.99709 18.8571 4.7611C18.9027 5.03002 19.0557 5.41513 19.3099 5.90063C19.6704 6.58925 19.6938 6.66231 19.6945 7.10055C19.6953 7.63164 19.5998 7.8603 19.1796 8.3338C19.0333 8.49879 18.8201 8.82877 18.7061 9.06708C18.5147 9.46712 18.4988 9.55425 18.4988 10.2018C18.4988 10.8593 18.5124 10.931 18.7166 11.3457C19.2242 12.3765 20.6 13.1646 21.6428 13.0217C21.9277 12.9826 21.9429 12.9881 21.8777 13.1067C21.7793 13.2855 21.0245 14.0561 20.6561 14.3539C20.3488 14.6023 19.2869 15.2667 19.1971 15.2667C19.1713 15.2667 19.0987 15.1318 19.0357 14.967C18.8535 14.4897 18.3212 13.7342 17.8587 13.2963C17.349 12.8138 17.0145 12.5817 16.2849 12.2045C15.1096 11.5968 14.4036 10.4767 14.4 9.21427C14.3986 8.68264 14.2134 7.88983 13.9687 7.3672C13.7025 6.79877 13.0512 5.92229 12.645 5.58605C11.9589 5.01829 11.0569 4.63691 10.1916 4.54885L9.71842 4.50072L10.0363 4.06742C11.1096 2.60438 12.9135 1.48839 14.6657 1.20354C14.9407 1.15881 15.2106 1.11348 15.2656 1.10268C15.5175 1.05335 16.505 1.07442 16.9699 1.13908ZM21.3054 3.3102C23.284 5.31827 23.9463 8.19514 23.059 10.928L22.8985 11.4224L22.3426 11.6891C21.6512 12.0209 21.2227 12.0463 20.6622 11.7887C20.1647 11.56 19.9066 11.3258 19.7039 10.919C19.3933 10.2958 19.4912 9.62978 19.9769 9.06068C20.3753 8.59398 20.5731 8.23854 20.6951 7.76983C20.8943 7.00475 20.7793 6.36026 20.2929 5.51705C19.7265 4.53505 19.7586 3.8345 20.3994 3.19367C20.5788 3.01429 20.7579 2.8675 20.7974 2.8675C20.8369 2.8675 21.0655 3.06675 21.3054 3.3102ZM10.7471 5.73297C11.5502 5.98102 12.1869 6.49785 12.7358 7.34713C13.123 7.94616 13.2601 8.38013 13.3289 9.22454C13.4076 10.1897 13.4875 10.5112 13.8201 11.2003C14.1958 11.9786 14.9265 12.7154 15.7323 13.1283C16.5262 13.5352 17.0761 13.9403 17.4387 14.3852C17.8139 14.8456 18.188 15.5715 18.0961 15.6608C17.9901 15.7638 17.0069 15.9422 16.3322 15.9809C14.6414 16.0778 12.8309 15.4994 11.4255 14.4132C8.9192 12.4762 7.91207 9.11748 8.94013 6.12468C9.02026 5.89149 9.11886 5.67858 9.15925 5.65164C9.31398 5.54852 10.3159 5.59978 10.7471 5.73297ZM7.56183 9.75037C7.62889 10.0695 7.73282 10.6083 7.73282 10.6369C7.73282 10.6534 6.71288 10.667 5.4663 10.667H3.19979V19.1997V27.7325H15.9989H28.7981V19.1997V10.667H26.5316C25.285 10.667 24.2652 10.6444 24.2654 10.617C24.2656 10.5895 24.2929 10.462 24.326 10.3337C24.3591 10.2053 24.4053 9.98789 24.4286 9.85036L24.4711 9.60038H27.0043H29.5374L29.701 9.76404L29.8647 9.92762V19.3634V28.7991H15.9989H2.13319V19.3634V9.92762L2.29685 9.76404L2.46044 9.60038H4.99533H7.5303L7.56183 9.75037ZM8.29198 12.1681C9.0036 13.7612 10.566 15.3481 12.2594 16.198C13.2788 16.7095 14.8221 17.067 16.0075 17.0661C17.1498 17.0653 18.545 16.7523 19.5909 16.2621C21.2754 15.4727 22.7823 14.01 23.5779 12.3919L23.8984 11.74L25.8149 11.7368L27.7315 11.7336V19.1997V26.6659H15.9989H4.26638V19.1997V11.7336L6.18292 11.7354L8.09946 11.7372L8.29198 12.1681ZM13.8161 20.9188L11.6668 23.4328L12.7662 23.4511L13.8657 23.4693V24.5343V25.5993H15.9989H18.1321V24.5343V23.4693L19.232 23.4511L20.3318 23.4328L18.1905 20.933C17.0128 19.558 16.0304 18.4267 16.0074 18.4189C15.9844 18.4111 14.9983 19.536 13.8161 20.9188ZM17.0378 21.2333L18.0076 22.3662L17.5366 22.3858L17.0655 22.4054V23.4691V24.5327H15.9989H14.9323V23.4691V22.4054L14.4617 22.3858L13.9911 22.3662L14.9751 21.2152C15.5164 20.5822 15.9837 20.0723 16.0136 20.0823C16.0435 20.0923 16.5044 20.6103 17.0378 21.2333ZM30.9313 30.2353C30.9313 30.539 30.902 30.6343 30.7676 30.7686L30.604 30.9323H15.9989H1.39384L1.23025 30.7686C1.09586 30.6343 1.0666 30.539 1.0666 30.2353V29.8657H15.9989H30.9313V30.2353Z" fill="black"/>
</svg>
