<svg width="32" height="32" viewBox="0 0 32 32" fill="none" xmlns="http://www.w3.org/2000/svg">
<path fill-rule="evenodd" clip-rule="evenodd" d="M10.2277 0.142949L10.0504 0.282322V3.17868V6.07511L9.26565 6.91155C8.61406 7.60606 8.48094 7.78324 8.48094 7.95578C8.48094 8.09084 8.53455 8.20694 8.6341 8.28759C8.77321 8.40026 8.93182 8.41163 10.3606 8.41163H11.9339V9.14408C11.9339 9.76507 11.9534 9.90074 12.0625 10.0353L12.191 10.1942H16.8985C21.4332 10.1942 21.6111 10.1894 21.7475 10.066C21.8873 9.93955 21.8891 9.9 21.8901 7.03909L21.8911 4.1403L22.6636 3.31671C23.0885 2.86375 23.4397 2.43998 23.4441 2.375C23.4581 2.16776 23.4267 2.05812 23.3188 1.93738C23.2241 1.8315 23.0522 1.81966 21.6096 1.81966H20.0056V1.05103C20.0056 -0.116761 20.577 0.0035085 15.028 0.0035085C10.4528 0.0035085 10.403 0.00492105 10.2277 0.142949ZM19.0639 4.20757V7.46992H14.5423H10.0207L10.4316 7.04951C10.6575 6.81833 10.8761 6.56299 10.9173 6.4822C10.9685 6.38151 10.9921 5.48641 10.9921 3.64026V0.945218H15.028H19.0639V4.20757ZM27.6066 1.39522C27.1934 1.4643 26.5627 1.7187 26.194 1.96489C23.9853 3.43981 23.9724 6.67054 26.1693 8.13995C27.6148 9.10668 29.4829 8.96697 30.7317 7.79871C31.2468 7.31696 31.5327 6.88882 31.7447 6.28222C32.4735 4.1964 31.2301 1.96274 29.0528 1.44648C28.6734 1.35654 27.9841 1.33213 27.6066 1.39522ZM2.73705 1.51959C1.5509 1.83904 0.572528 2.76951 0.158243 3.97214C-0.0303677 4.51948 -0.054785 5.57016 0.108803 6.09502C0.62365 7.74665 2.03198 8.81522 3.69389 8.81522C5.45011 8.81522 6.96869 7.58037 7.33353 5.85556C7.58564 4.66376 7.24548 3.47929 6.38886 2.56644C5.66832 1.79861 4.76906 1.41305 3.71569 1.42051C3.37075 1.42293 2.93037 1.46753 2.73705 1.51959ZM29.4576 2.58722C30.5613 3.13274 31.1905 4.34217 30.976 5.50612C30.6365 7.34884 28.7023 8.35661 27.0265 7.56396C26.0148 7.08537 25.3806 5.96433 25.4761 4.82345C25.5505 3.93373 26.1289 3.06137 26.9259 2.63653C27.4596 2.35207 27.7433 2.29119 28.4034 2.31958C28.8854 2.34029 29.0345 2.37816 29.4576 2.58722ZM4.89511 2.61716C6.66055 3.48622 7.01766 5.75271 5.60193 7.10306C5.08675 7.5945 4.59477 7.81122 3.89219 7.85616C2.42373 7.95013 1.22937 7.00162 0.954391 5.523C0.720847 4.26703 1.59462 2.86772 2.87232 2.45168C3.05292 2.39283 3.38952 2.36585 3.8001 2.37729C4.37327 2.39323 4.49421 2.41973 4.89511 2.61716ZM12.5604 2.6933C12.2634 2.81559 12.1804 3.20976 12.4047 3.43402C12.5344 3.56371 12.6289 3.56855 15.0231 3.56855H17.5071L17.6503 3.38647C17.7504 3.25927 17.7809 3.15292 17.7517 3.03332C17.6588 2.65368 17.7129 2.66162 15.1098 2.64669C13.7885 2.63908 12.6413 2.66007 12.5604 2.6933ZM21.5079 3.18178C21.282 3.41304 21.0634 3.66831 21.0222 3.74909C20.971 3.84979 20.9474 4.74488 20.9474 6.59104V9.28607H16.9115H12.8756V8.84885V8.41163H16.3061C19.6469 8.41163 19.7401 8.40813 19.8711 8.2771C20.0011 8.14708 20.0056 8.05291 20.0056 5.45197V2.76137H20.9622H21.9188L21.5079 3.18178ZM12.4353 5.01172C12.2336 5.21338 12.2265 5.37832 12.4096 5.61105L12.549 5.7883H15.0023H17.4557L17.6208 5.62316C17.7116 5.53235 17.7859 5.3948 17.7859 5.31744C17.7859 5.24009 17.7116 5.10253 17.6208 5.01172L17.4557 4.84659H15.028H12.6004L12.4353 5.01172ZM3.05709 9.32233C2.36063 9.5174 1.81646 9.96922 1.4572 10.6507L1.27235 11.0013V16.1807V21.3601L1.50287 21.7853C1.87673 22.4748 2.50249 22.9324 3.27086 23.0781C3.45813 23.1136 4.6202 23.1427 5.8533 23.1427H8.09524L8.11428 26.6909L8.13338 30.2391L8.31822 30.5898C8.69208 31.2989 9.23437 31.7342 9.98297 31.926C11.3608 32.2789 12.7765 31.3313 13.0111 29.8991C13.1044 29.3293 13.0981 20.7238 13.0041 20.2149C12.8547 19.4068 12.3302 18.7155 11.6107 18.3783L11.2276 18.1987L8.72195 18.1788L6.21633 18.1589L6.21593 14.9501C6.21572 13.1852 6.18606 11.5613 6.15007 11.3414C5.91357 9.89724 4.43966 8.93509 3.05709 9.32233ZM27.3321 9.43978C26.4808 9.79884 25.9622 10.439 25.7966 11.3353C25.7501 11.5865 25.7232 12.9121 25.7232 14.9456V18.1589L23.2176 18.1788L20.7119 18.1987L20.312 18.395C19.5764 18.7562 19.085 19.4058 18.9354 20.2149C18.8414 20.7238 18.8351 29.3293 18.9284 29.8991C19.163 31.3313 20.5787 32.2789 21.9565 31.926C22.7051 31.7342 23.2474 31.2989 23.6213 30.5898L23.8061 30.2391L23.8252 26.6953L23.8443 23.1515L26.314 23.1289C28.5977 23.108 28.8074 23.0962 29.0983 22.9728C29.8288 22.6627 30.3043 22.1793 30.5653 21.4818C30.7005 21.1203 30.7029 21.0129 30.6852 16.0908L30.6671 11.0686L30.4776 10.6826C30.2364 10.1914 29.796 9.75054 29.3081 9.51182C28.9931 9.35771 28.8185 9.32099 28.3166 9.30309C27.7973 9.28466 27.6521 9.30477 27.3321 9.43978ZM4.39863 10.3626C4.68053 10.5077 4.94327 10.7787 5.1156 11.1022C5.23291 11.3225 5.24226 11.5792 5.26043 15.0849L5.27993 18.8321L5.45449 18.9694C5.62359 19.1025 5.71292 19.1068 8.28937 19.1068C10.8503 19.1068 10.9605 19.112 11.24 19.2473C11.3998 19.3246 11.6222 19.4987 11.7345 19.6341C12.1441 20.1284 12.142 20.0984 12.1211 25.2359L12.102 29.9028L11.953 30.1815C11.4419 31.1371 10.2719 31.3445 9.48951 30.6182C9.05955 30.2191 9.07832 30.4019 9.04146 26.2607C9.00978 22.7008 9.00063 22.4761 8.88278 22.3459C8.76123 22.2116 8.68253 22.2073 6.02402 22.1876C3.37129 22.1679 3.28236 22.163 3.02124 22.0222C2.87326 21.9422 2.67052 21.7909 2.57077 21.6858C2.16772 21.2612 2.18043 21.4402 2.18043 16.1807C2.18043 10.9213 2.16778 11.1001 2.57077 10.6758C3.04331 10.1783 3.79143 10.0501 4.39863 10.3626ZM28.9503 10.3626C29.2596 10.5217 29.5245 10.8055 29.6546 11.1169C29.7457 11.3351 29.7591 11.981 29.7591 16.1807C29.7591 21.4402 29.7718 21.2612 29.3687 21.6858C29.269 21.7909 29.0662 21.9422 28.9183 22.0222C28.6571 22.163 28.5682 22.1679 25.9155 22.1876C23.257 22.2073 23.1783 22.2116 23.0567 22.3459C22.9389 22.4761 22.9297 22.7008 22.898 26.2607C22.8612 30.4019 22.8799 30.2191 22.45 30.6182C21.6676 31.3445 20.4976 31.1371 19.9865 30.1815L19.8375 29.9028L19.8185 25.2359C19.7975 20.0984 19.7954 20.1284 20.205 19.6341C20.3173 19.4987 20.5397 19.3246 20.6995 19.2473C20.979 19.112 21.0892 19.1068 23.6501 19.1068C26.2266 19.1068 26.3159 19.1025 26.485 18.9694L26.6596 18.8321L26.6791 15.0849C26.6972 11.5792 26.7066 11.3225 26.8239 11.1022C27.2642 10.2755 28.1693 9.96067 28.9503 10.3626ZM8.72673 12.5275C8.46271 12.6551 8.42659 12.8846 8.44879 14.2935C8.4693 15.5958 8.47273 15.6236 8.62852 15.7496C8.78255 15.8742 9.00076 15.878 15.9698 15.878C22.9386 15.878 23.1569 15.8742 23.311 15.7496C23.4662 15.624 23.4703 15.5922 23.4916 14.3538C23.5157 12.9476 23.4677 12.6487 23.1982 12.5259C22.9662 12.4202 8.9454 12.4218 8.72673 12.5275ZM22.5471 14.1796L22.5662 14.9363H15.972H9.37778V14.2077C9.37778 13.8068 9.3981 13.4586 9.42298 13.4338C9.44781 13.4089 12.4066 13.3963 15.9981 13.4057L22.5281 13.4229L22.5471 14.1796Z" fill="black"/>
</svg>
