<svg width="38" height="32" viewBox="0 0 38 32" fill="none" xmlns="http://www.w3.org/2000/svg">
<path fill-rule="evenodd" clip-rule="evenodd" d="M1.76007 0.0588438C1.06093 0.223566 0.336358 0.920559 0.125303 1.63134C-0.0413469 2.1923 -0.0419399 25.0401 0.124562 25.5935C0.300181 26.177 0.717399 26.6591 1.30712 26.9599L1.81567 27.2193L7.69823 27.24C13.0423 27.2588 13.5808 27.2716 13.5808 27.3798C13.5808 27.5393 13.2149 30.5104 13.1692 30.7221C13.134 30.8853 13.1109 30.8889 12.1132 30.8889C11.0036 30.8889 10.8222 30.9423 10.7336 31.2955C10.6794 31.5115 10.8455 31.8854 11.0266 31.9549C11.1834 32.015 26.8015 32.015 26.9584 31.9549C27.1394 31.8854 27.3055 31.5115 27.2513 31.2955C27.1627 30.9423 26.9813 30.8889 25.8717 30.8889C24.8741 30.8889 24.8509 30.8853 24.8157 30.7221C24.77 30.5104 24.4041 27.5393 24.4041 27.3798C24.4041 27.2716 24.9426 27.2588 30.2867 27.24L36.1692 27.2193L36.6778 26.9599C37.0437 26.7732 37.2628 26.5992 37.4587 26.3397C38.0086 25.6113 37.9704 26.5613 37.9704 13.621C37.9704 3.36545 37.9569 1.95901 37.856 1.61889C37.695 1.07705 37.2103 0.509643 36.674 0.235353L36.2388 0.0127333L19.146 0.00124288C8.80162 -0.00572557 1.93747 0.0170331 1.76007 0.0588438ZM36.1981 1.25771C36.4302 1.37855 36.573 1.52251 36.6916 1.75529L36.8584 2.08281V13.6083C36.8584 25.114 36.8581 25.1344 36.7049 25.4511C36.6147 25.6372 36.4387 25.8382 36.2786 25.9377L36.0059 26.1074H18.9925H1.97906L1.70633 25.9377C1.5462 25.8382 1.37021 25.6372 1.28006 25.4511C1.12683 25.1344 1.12654 25.114 1.12654 13.6083V2.08281L1.29333 1.75529C1.41187 1.52251 1.55472 1.37855 1.78683 1.25771L2.11361 1.08765H18.9925H35.8713L36.1981 1.25771ZM2.56878 2.5299L2.38679 2.71182V13.6127C2.38679 24.3678 2.38872 24.5154 2.5332 24.6599C2.73818 24.8649 2.95071 24.9029 3.72547 24.8731C4.33002 24.8498 4.41653 24.8286 4.54323 24.6721C4.73508 24.4351 4.7227 24.1301 4.51335 23.9333C4.37873 23.8069 4.251 23.7722 3.92029 23.7722H3.49877V13.616V3.45989H17.5873H31.6759L31.8661 3.26967C32.0195 3.11621 32.0476 3.03378 32.0108 2.84341C31.9857 2.7136 31.8948 2.54903 31.8089 2.47764C31.6613 2.3551 30.8556 2.34791 17.2017 2.34791H2.7507L2.56878 2.5299ZM33.482 2.5299C33.2485 2.76334 33.2441 3.085 33.4716 3.29873C33.6062 3.4252 33.7339 3.45989 34.0646 3.45989H34.4861V13.616V23.7722H20.3693H6.25242L6.09882 23.9675C6.01431 24.0749 5.94515 24.2068 5.94515 24.2606C5.94515 24.4566 6.11417 24.7215 6.29038 24.8019C6.42078 24.8613 10.4508 24.8842 20.7788 24.8842C36.0551 24.8842 35.4172 24.8987 35.5521 24.5472C35.5774 24.4813 35.5981 19.5413 35.5981 13.5696V2.71182L35.4161 2.5299C35.2459 2.35954 35.1838 2.34791 34.4491 2.34791C33.7143 2.34791 33.6523 2.35954 33.482 2.5299ZM10.4169 5.99441C10.3281 6.03733 10.2181 6.16239 10.1726 6.27226C10.0234 6.63247 10.1718 6.81817 11.1129 7.44866L11.9874 8.03453L13.0167 11.6592C13.5829 13.6529 14.1078 15.3937 14.1833 15.5278L14.3205 15.7716L13.9013 16.6028C13.4025 17.5915 13.3577 17.9429 13.6702 18.4151C13.8576 18.6981 13.8597 18.7152 13.7576 19.1075C13.6763 19.4199 13.6706 19.5952 13.7322 19.8934C14.0615 21.4872 16.1658 21.7987 16.9433 20.3687C17.1311 20.0234 17.1519 19.9206 17.1262 19.4663L17.0973 18.9536H19.5866H22.076L22.0453 19.4356C22.0192 19.8452 22.0443 19.9782 22.2122 20.3214C22.9088 21.7453 24.9642 21.5489 25.4126 20.0156C25.5258 19.6286 25.5279 19.5411 25.4332 19.175C25.3473 18.8433 25.3449 18.7315 25.4201 18.582C25.5223 18.3788 25.4848 18.1698 25.3105 17.9713C25.204 17.85 24.852 17.8416 19.9076 17.8416C16.362 17.8416 14.6186 17.8167 14.6186 17.766C14.6186 17.7244 14.7655 17.3979 14.945 17.0405L15.2714 16.3907L15.5566 16.4151C16.0072 16.4536 23.8709 15.4934 24.2929 15.3483C24.8029 15.173 25.4492 14.5245 25.6138 14.023C25.6805 13.8196 25.9525 12.5542 26.218 11.2112C26.666 8.94562 26.6926 8.75673 26.5864 8.59468C26.5235 8.4986 26.3987 8.38985 26.3091 8.35301C26.2196 8.31616 23.3941 8.16693 20.0303 8.02141C13.2522 7.72822 12.9888 7.71198 12.9853 7.58685C12.9839 7.53918 12.9244 7.43028 12.853 7.34488C12.672 7.12834 10.8265 5.90515 10.6901 5.91131C10.6287 5.91405 10.5058 5.95141 10.4169 5.99441ZM15.5635 8.97631C15.6005 9.01323 15.9469 10.9874 15.9517 11.1882C15.9524 11.2187 15.5259 11.2438 15.0038 11.2438H14.0545L13.7139 10.0471L13.3733 8.85036L14.4456 8.89047C15.0353 8.91256 15.5384 8.95118 15.5635 8.97631ZM18.455 9.06831L19.0666 9.1159V10.1799V11.2438H18.0811H17.0956L16.9311 10.2245C16.8407 9.66389 16.7671 9.1635 16.7676 9.11249C16.7686 9.0073 17.4438 8.98958 18.455 9.06831ZM22.3028 9.26602C22.3168 9.28003 22.2892 9.73076 22.2415 10.2676L22.1547 11.2438H21.1666H20.1786V10.1944V9.14504L21.2279 9.19278C21.805 9.21902 22.2888 9.25201 22.3028 9.26602ZM25.416 9.41399C25.4391 9.43704 25.2387 10.5172 25.1076 11.077C25.0697 11.2386 25.0408 11.2438 24.1708 11.2438H23.273L23.323 10.6322C23.3504 10.2959 23.393 9.85723 23.4176 9.65759L23.4624 9.29449L24.4256 9.3406C24.9553 9.36595 25.4011 9.39894 25.416 9.41399ZM16.1307 12.4175C16.1777 12.4937 16.6342 15.1845 16.6045 15.2111C16.5928 15.2217 16.3465 15.2536 16.0573 15.2821C15.27 15.3595 15.2198 15.299 14.7648 13.7272C14.5641 13.0341 14.3991 12.4419 14.3981 12.4114C14.3956 12.3348 16.0833 12.3407 16.1307 12.4175ZM19.0295 13.6531V14.9134L18.4019 15.0024C18.0567 15.0513 17.7633 15.0804 17.7499 15.067C17.7266 15.0438 17.2901 12.5299 17.2883 12.409C17.2878 12.3771 17.6794 12.3605 18.1585 12.3719L19.0295 12.3929V13.6531ZM22.0059 12.8191C21.9804 13.074 21.9375 13.5736 21.9108 13.9295C21.8562 14.6539 21.8944 14.6142 21.1794 14.687C20.9347 14.7119 20.6095 14.751 20.4566 14.7738L20.1786 14.8152V13.5855V12.3558H21.1155H22.0523L22.0059 12.8191ZM24.8252 12.5226C24.8033 12.6144 24.7449 12.9 24.6954 13.1575C24.5395 13.968 24.1653 14.3315 23.4064 14.4098C23.033 14.4484 22.9956 14.439 22.9956 14.3065C22.9956 14.0693 23.1482 12.5492 23.1821 12.4485C23.2046 12.3817 23.4446 12.3558 24.0392 12.3558C24.858 12.3558 24.8646 12.3572 24.8252 12.5226ZM15.8556 19.1147C16.1871 19.4262 16.0286 19.9995 15.5659 20.1626C15.3317 20.2451 14.9802 20.0619 14.8708 19.8002C14.6154 19.1886 15.3729 18.6613 15.8556 19.1147ZM24.1264 19.057C24.3525 19.2286 24.4308 19.5765 24.3003 19.8289C24.1786 20.0643 23.8177 20.2375 23.6051 20.1626C22.9245 19.9227 23.0263 18.9496 23.7313 18.9559C23.8771 18.9572 24.0549 19.0027 24.1264 19.057ZM16.9187 27.7753C17.1438 28.6617 17.4386 29.0627 18.1313 29.4244C18.5719 29.6545 19.4215 29.6489 19.882 29.4127C20.5389 29.0759 20.8426 28.656 21.0662 27.7753L21.1886 27.2935L22.224 27.273L23.2595 27.2526L23.4831 29.0707L23.7066 30.8889H18.9925H14.2783L14.5018 29.0707L14.7254 27.2526L15.7609 27.273L16.7963 27.2935L16.9187 27.7753ZM20.001 27.4958C19.8832 28.0848 19.4565 28.5167 18.9925 28.5167C18.5284 28.5167 18.1018 28.0848 17.984 27.4958L17.9361 27.2564H18.9925H20.0488L20.001 27.4958Z" fill="black"/>
</svg>
