<svg width="34" height="32" viewBox="0 0 34 32" fill="none" xmlns="http://www.w3.org/2000/svg">
<path fill-rule="evenodd" clip-rule="evenodd" d="M11.204 0.126309C10.1914 0.450016 9.40468 1.34446 9.20462 2.39941C9.11402 2.87714 9.11824 6.792 9.20989 7.23258C9.45041 8.38946 10.4239 9.34654 11.5729 9.55577C11.8265 9.60195 13.5663 9.62569 16.6461 9.62504C20.599 9.62426 21.3987 9.60872 21.7504 9.52579C22.8408 9.26875 23.6484 8.4718 23.9355 7.36956C24.0793 6.81724 24.0763 2.73197 23.9316 2.17626C23.7529 1.49028 23.2055 0.754146 22.6178 0.409756C22.048 0.0758374 21.6459 0 20.4452 0C19.8123 0 19.2876 0.0285528 19.2159 0.0669919C19.0581 0.151415 18.8943 0.463024 18.8943 0.678699C18.8943 0.769301 18.9796 0.939057 19.084 1.05587L19.2736 1.26829L20.4336 1.30081C21.5185 1.33125 21.6122 1.34387 21.8831 1.49593C22.2215 1.68585 22.5681 2.11265 22.6637 2.45691C22.761 2.80709 22.7537 6.83837 22.6552 7.16702C22.5584 7.49028 22.1456 7.9626 21.7969 8.14907L21.5285 8.29268L16.7553 8.31096C12.5725 8.32702 11.9387 8.31662 11.6307 8.22706C11.2235 8.10868 10.8224 7.77737 10.6132 7.38654C10.4773 7.13262 10.4707 7.03545 10.4512 4.97756C10.4376 3.55128 10.455 2.73678 10.5032 2.5455C10.6062 2.13672 10.9133 1.72358 11.2704 1.51369C11.5701 1.3375 11.606 1.33255 12.8242 1.30081C14.0308 1.26933 14.0766 1.26322 14.2379 1.11154C14.5465 0.821333 14.4987 0.253593 14.1499 0.0669919C14.0761 0.0274471 13.5231 0.00143089 12.801 0.00351219C11.8 0.00637398 11.5093 0.0286829 11.204 0.126309ZM16.2877 0.190114C16.0829 0.394927 16.0321 0.731772 16.1678 0.985366C16.282 1.19857 16.6513 1.3213 16.916 1.23402C17.2047 1.13867 17.3333 0.946211 17.3333 0.609171C17.3333 0.0569105 16.682 -0.204163 16.2877 0.190114ZM27.543 2.12286C27.304 2.28124 25.8689 3.70062 25.6516 3.9935C25.5171 4.17489 25.4634 4.32195 25.4634 4.50959C25.4634 4.76163 25.5037 4.81229 26.4878 5.79571C27.1199 6.42732 27.5807 6.83642 27.6911 6.86387C28.1854 6.98693 28.6145 6.56299 28.4915 6.07298C28.468 5.97899 28.2847 5.73021 28.0844 5.52013L27.7201 5.13821L29.4698 5.13782C30.4683 5.13763 31.3229 5.10875 31.4605 5.07057C31.9661 4.93015 32.1325 4.38263 31.7774 4.02751L31.5873 3.8374H29.6635C28.6055 3.8374 27.7398 3.81424 27.7398 3.78589C27.7398 3.75759 27.8739 3.6039 28.0377 3.44442C28.3623 3.12852 28.5203 2.8759 28.5203 2.67298C28.5203 2.17385 27.9501 1.85294 27.543 2.12286ZM12.5804 4.35272C12.2388 4.69424 12.3623 5.22699 12.8235 5.40234C12.9167 5.43779 14.5259 5.46341 16.6579 5.46341C20.6883 5.46341 20.6073 5.47096 20.8119 5.07532C20.8661 4.97034 20.9106 4.85086 20.9106 4.80982C20.9106 4.64019 20.6982 4.30569 20.5467 4.23668C20.431 4.184 19.2855 4.1626 16.5773 4.1626H12.7705L12.5804 4.35272ZM4.43324 4.29886C2.40254 4.57073 0.730537 6.03246 0.146862 8.04611C0.00891056 8.52208 0 8.67141 0 10.5041C0 12.7004 0.0231545 12.8572 0.491447 13.8323C1.31441 15.5457 3.13229 16.7154 4.97216 16.7154C5.26023 16.7154 5.49593 16.7349 5.49593 16.7587C5.49593 16.7825 5.32033 16.9848 5.10569 17.2084C4.77411 17.5536 4.71545 17.6505 4.71545 17.8523C4.71545 18.1613 4.80319 18.3162 5.05047 18.4441C5.4385 18.6447 5.57685 18.559 6.7185 17.4097C8.12351 15.9953 8.12637 16.1956 6.68078 14.7501C5.65236 13.7216 5.57496 13.6585 5.34244 13.6585C4.98647 13.6585 4.71545 13.9399 4.71545 14.3096C4.71545 14.5528 4.75623 14.6228 5.11603 14.9975L5.51655 15.4146H5.03213C4.02543 15.4146 3.1907 15.0591 2.43623 14.3089C1.87246 13.7484 1.58595 13.2537 1.39675 12.5141C1.28741 12.0864 1.26829 11.7927 1.26829 10.5381C1.26829 9.72767 1.30003 8.89086 1.3388 8.67863C1.58894 7.30966 2.73073 6.08507 4.13301 5.68182C4.3827 5.61002 4.9278 5.56741 5.97327 5.53789L7.45873 5.49593L7.61554 5.31343C7.83675 5.05606 7.82452 4.74341 7.5827 4.47259L7.39304 4.26016L6.13554 4.24976C5.4439 4.24397 4.67785 4.26608 4.43324 4.29886ZM11.3496 11.305C11.1171 11.3658 10.7949 11.4929 10.6337 11.5874C10.238 11.8194 9.71954 12.3486 9.50927 12.735C9.1812 13.3378 9.14023 13.6966 9.13919 15.9749C9.13867 17.1281 9.16793 18.2203 9.20462 18.4136C9.38036 19.3405 9.99018 20.1158 10.8761 20.5389L11.3821 20.7805L16.4137 20.7987C20.8089 20.8146 21.4957 20.804 21.8446 20.7149C22.8359 20.462 23.6735 19.6279 23.9316 18.6367C24.0687 18.1102 24.0786 13.9342 23.944 13.4309C23.6482 12.3253 22.7266 11.4564 21.6334 11.2524C21.4177 11.2121 19.4558 11.1884 16.5277 11.1908C12.2702 11.1941 11.7281 11.206 11.3496 11.305ZM21.8763 12.713C22.2367 12.9127 22.521 13.2548 22.6563 13.652C22.754 13.9385 22.7603 18.0081 22.6637 18.3561C22.5607 18.7268 22.2174 19.1275 21.8288 19.3305L21.4811 19.5122L16.6267 19.5093C12.8466 19.5071 11.7207 19.488 11.5389 19.423C11.1737 19.2925 10.8671 19.0228 10.6609 18.6507L10.4715 18.3089V16C10.4715 13.873 10.4811 13.6731 10.5926 13.4634C10.8369 13.0042 11.2567 12.6594 11.7073 12.5478C11.8146 12.5212 14.0683 12.5042 16.7154 12.5099L21.5285 12.5203L21.8763 12.713ZM12.748 15.4238C12.346 15.6488 12.2656 16.1456 12.5804 16.4603L12.7705 16.6504H15.1527C17.7665 16.6504 17.8254 16.6424 17.9807 16.2675C18.0848 16.0162 18.0191 15.7307 17.8126 15.5367L17.6482 15.3821L15.2632 15.3666C13.5973 15.3557 12.8388 15.3729 12.748 15.4238ZM19.9564 15.4419C19.5551 15.6213 19.476 16.1364 19.7999 16.4603C20.0589 16.7193 20.3754 16.7199 20.6641 16.4619C21.2153 15.9695 20.6377 15.1371 19.9564 15.4419ZM25.7958 15.4366C25.4239 15.6516 25.3533 16.1601 25.6535 16.4603L25.8436 16.6504L27.1332 16.6515C28.6479 16.6529 29.0977 16.7271 29.8558 17.1007C30.7412 17.537 31.4331 18.334 31.78 19.3171C31.9172 19.7058 31.9313 19.8723 31.9541 21.3855C31.9747 22.7463 31.9604 23.115 31.8712 23.5158C31.4828 25.2616 29.9265 26.5318 28.1714 26.5356L27.7249 26.5366L28.1226 26.1114C28.4738 25.7361 28.5203 25.6555 28.5203 25.4235C28.5203 24.9376 28.0229 24.6326 27.5892 24.8526C27.3859 24.9556 25.6677 26.665 25.5565 26.8748C25.5053 26.9714 25.4634 27.145 25.4634 27.2605C25.4634 27.4446 25.5893 27.5973 26.4814 28.4957C27.0412 29.0595 27.5809 29.5546 27.6808 29.596C27.8176 29.6526 27.9179 29.6528 28.0884 29.5965C28.3668 29.5046 28.5203 29.2827 28.5203 28.9723C28.5203 28.7729 28.4604 28.6743 28.1301 28.3303C27.9154 28.1068 27.7398 27.9045 27.7398 27.8806C27.7398 27.8568 27.9575 27.8374 28.2234 27.8374C29.0824 27.8374 29.9794 27.5833 30.7824 27.1125C31.3043 26.8064 32.2158 25.8834 32.5415 25.331C33.1653 24.2728 33.29 23.5666 33.2524 21.3008C33.2274 19.7906 33.2089 19.5578 33.0795 19.1237C32.6642 17.7307 31.7325 16.5949 30.4635 15.9347C29.5863 15.4784 29.1631 15.3993 27.4472 15.3713C26.258 15.3518 25.9193 15.3652 25.7958 15.4366ZM11.4765 22.4626C10.3711 22.7007 9.44345 23.644 9.20989 24.7674C9.11824 25.208 9.11402 29.1229 9.20462 29.6006C9.40683 30.667 10.1966 31.5566 11.2254 31.8767C11.5994 31.9932 11.8961 32 16.5854 32C21.2648 32 21.572 31.993 21.9431 31.8775C22.6779 31.6488 23.2628 31.1805 23.6597 30.5031C23.9996 29.923 24.0325 29.6332 24.0325 27.2195C24.0325 24.8202 24.0072 24.5908 23.6675 23.9206C23.4597 23.5104 22.9378 22.9892 22.495 22.7497C21.8082 22.3781 21.7662 22.3755 16.5854 22.3804C13.1633 22.3836 11.7367 22.4066 11.4765 22.4626ZM21.7921 23.8485C22.119 24.0235 22.4289 24.3352 22.5824 24.6434C22.6866 24.8527 22.7012 25.115 22.7179 27.0734C22.73 28.4817 22.7118 29.3608 22.6674 29.5259C22.561 29.9208 22.225 30.3176 21.8253 30.5203L21.4726 30.6992H16.5865H11.7004L11.3567 30.5279C10.9382 30.3194 10.6037 29.8906 10.5009 29.4309C10.4528 29.2157 10.4355 28.3907 10.4499 26.9919C10.4706 24.9705 10.4777 24.8667 10.6122 24.6179C10.8195 24.2343 11.1657 23.9337 11.5566 23.7975C11.8828 23.6838 12.1755 23.6779 16.7154 23.6922C21.5154 23.7073 21.5292 23.7077 21.7921 23.8485ZM3.38211 24.8553C3.19831 24.9554 1.68306 26.4525 1.45652 26.7577C1.33236 26.925 1.26829 27.0896 1.26829 27.2409C1.26829 27.4502 1.35824 27.5611 2.28624 28.4957C2.84611 29.0595 3.38582 29.5546 3.48566 29.596C3.6225 29.6526 3.7228 29.6528 3.89327 29.5965C4.17164 29.5046 4.3252 29.2827 4.3252 28.9723C4.3252 28.7729 4.2653 28.6743 3.93496 28.3303C3.72033 28.1068 3.54472 27.9045 3.54472 27.8806C3.54472 27.8568 4.41041 27.8374 5.46842 27.8374H7.39213L7.58224 27.6473C7.78524 27.4443 7.83798 27.106 7.70537 26.8582C7.54615 26.5606 7.37346 26.5366 5.39415 26.5366H3.52982L3.92748 26.1114C4.27863 25.7361 4.3252 25.6555 4.3252 25.4235C4.3252 24.9365 3.80657 24.6241 3.38211 24.8553ZM12.5804 26.7917C12.3208 27.0513 12.3206 27.3672 12.58 27.6575L12.7698 27.8699L16.5134 27.8877C20.652 27.9074 20.6066 27.9114 20.8158 27.5067C20.9057 27.3329 20.9121 27.2535 20.8522 27.0535C20.7106 26.5808 20.9057 26.6016 16.6152 26.6016H12.7705L12.5804 26.7917Z" fill="black"/>
</svg>
