<svg width="30" height="32" viewBox="0 0 30 32" fill="none" xmlns="http://www.w3.org/2000/svg">
<path fill-rule="evenodd" clip-rule="evenodd" d="M13.8555 0.096571C12.7832 0.290597 11.6732 0.869338 10.8428 1.66745L10.3679 2.12387L5.52557 2.14181L0.683199 2.15975L0.447687 2.33944C-0.0465477 2.71642 -0.00986355 1.79024 0.00941228 13.415L0.0266871 23.8471L0.218912 24.0991C0.567144 24.5557 0.332766 24.5371 5.73313 24.5371H10.6101L10.5713 24.7872C10.55 24.9248 10.4721 25.5325 10.3983 26.1378C10.3245 26.7431 10.2466 27.3509 10.2253 27.4885L10.1865 27.7386H8.98515C7.63224 27.7386 7.45649 27.7819 7.143 28.193L6.96332 28.4285V29.8729V31.3174L7.15554 31.5693C7.51245 32.0372 7.02155 32.0109 15.0289 31.9915C22.2154 31.9741 22.262 31.9731 22.445 31.8364C22.8914 31.5032 22.9023 31.4608 22.9246 29.9751C22.9479 28.4356 22.9152 28.2812 22.4998 27.9642L22.2481 27.7719L20.9639 27.7513L19.6798 27.7308L19.6416 27.4845C19.6207 27.3491 19.5431 26.7431 19.4693 26.1378C19.3954 25.5325 19.3177 24.9253 19.2964 24.7884L19.2579 24.5396L24.2277 24.5217C29.129 24.504 29.2 24.5018 29.3816 24.3662C29.483 24.2905 29.6277 24.1458 29.7033 24.0445C29.8407 23.8605 29.8409 23.8472 29.8581 13.4262C29.8773 1.88662 29.9088 2.71235 29.4363 2.35198L29.1844 2.15975L24.3396 2.14181L19.4949 2.12387L19.0545 1.69413C17.6651 0.338419 15.7578 -0.247659 13.8555 0.096571ZM15.8117 1.15287C16.3184 1.24985 17.0711 1.52478 17.2985 1.69606C17.4267 1.79258 17.4259 1.80011 17.2485 2.16182C17.109 2.44622 17.0681 2.62724 17.0681 2.9608V3.392L16.6038 3.62578C16.3484 3.75438 16.1083 3.91785 16.0702 3.98909C16.0315 4.06152 16.0009 4.54342 16.0009 5.08267C16.0009 5.90266 16.0184 6.06794 16.1177 6.188C16.191 6.27664 16.5684 6.44072 17.132 6.62894C17.993 6.91641 18.0618 6.92869 18.8162 6.92869C19.2838 6.92869 19.6027 6.9551 19.6027 6.99385C19.6027 7.25351 18.9219 8.66284 18.7965 8.66284C18.7721 8.66284 18.4146 8.39272 18.0019 8.06256L17.2516 7.46227H16.5232C15.8387 7.46227 15.7849 7.47214 15.6311 7.62602C15.4856 7.77142 15.4674 7.84699 15.4674 8.30221C15.4674 8.80738 15.4636 8.81878 15.2006 9.10412L14.9338 9.39352V10.0287V10.6638H14.7395C14.3907 10.6638 13.5672 10.4786 13.1287 10.3016C12.7051 10.1305 11.7659 9.54079 11.8242 9.48243C11.8407 9.46596 11.9149 9.48484 11.989 9.52452C12.0679 9.56674 12.5274 9.59662 13.0982 9.59662C14.044 9.59662 14.0776 9.59182 14.2364 9.43288C14.3897 9.27967 14.4002 9.22398 14.4002 8.56146C14.4002 8.17221 14.369 7.79543 14.3309 7.7242C14.2928 7.65296 14.0527 7.48949 13.7973 7.36089C13.3616 7.14152 13.333 7.11331 13.333 6.90361C13.333 6.69297 13.3754 6.65209 14.0706 6.1924C14.4763 5.92421 14.8365 5.65195 14.871 5.58738C14.9055 5.52288 14.9338 5.15231 14.9338 4.76386V4.05765L14.667 3.76825L14.4002 3.47878V2.71462V1.95039L14.1338 1.59335C13.9873 1.39699 13.8819 1.22177 13.8996 1.2041C14.0463 1.05743 15.1572 1.02768 15.8117 1.15287ZM13.0641 1.94905L13.333 2.30529V3.11774V3.93026L13.5998 4.21967C13.8184 4.45684 13.8666 4.55736 13.8666 4.776C13.8666 5.04192 13.8639 5.04472 13.129 5.53062C12.7233 5.79882 12.3632 6.07108 12.3286 6.13564C12.2435 6.29472 12.2487 7.57239 12.3351 7.73394C12.3732 7.80517 12.6133 7.96865 12.8687 8.09724C13.4876 8.40886 13.4859 8.52945 12.8628 8.52945C12.4359 8.52945 12.3043 8.49183 11.4363 8.12199L10.4801 7.71453L10.3382 7.23663C9.7385 5.21641 10.5524 3.01069 12.3317 1.83473C12.5329 1.70167 12.7195 1.59282 12.7463 1.59282C12.7731 1.59282 12.9161 1.75309 13.0641 1.94905ZM19.0875 3.46671C19.4004 3.99756 19.6439 4.75125 19.706 5.38102L19.7533 5.86151H18.9913C18.3313 5.86151 18.1538 5.83617 17.6654 5.67229L17.1015 5.483L17.0818 5.04099L17.0621 4.59891L17.5294 4.3636C17.7864 4.2342 18.0279 4.07006 18.066 3.99883C18.1041 3.92759 18.1353 3.62865 18.1353 3.33451C18.1353 3.04037 18.1719 2.71928 18.2167 2.62104L18.298 2.44249L18.5668 2.74103C18.7147 2.90517 18.949 3.2318 19.0875 3.46671ZM9.6646 3.22826C9.6646 3.24734 9.58957 3.44756 9.49786 3.67327C9.40615 3.89898 9.33111 4.12269 9.33111 4.17037C9.33111 4.24007 8.69274 4.26068 6.0743 4.27562L2.81755 4.2941L2.58204 4.47379C2.093 4.84683 2.12395 4.29163 2.14349 12.3484L2.16104 19.5784L2.35326 19.8304C2.7147 20.3043 1.72203 20.2712 15.0281 20.2522L27.0631 20.235L27.2473 20.0975C27.3486 20.0218 27.4933 19.8771 27.569 19.7758C27.7056 19.5928 27.7066 19.5462 27.7241 12.3597C27.7435 4.35246 27.7698 4.84323 27.302 4.48633L27.05 4.2941L23.8091 4.27562L20.5681 4.25715L20.4232 3.84209C20.3435 3.61378 20.2582 3.37453 20.2335 3.3103C20.1911 3.19985 20.4213 3.19358 24.4979 3.19358H28.807V13.3317V23.4699H14.9338H1.06051V13.3317V3.19358H5.36256C7.72868 3.19358 9.6646 3.20918 9.6646 3.22826ZM9.06432 5.81943C9.06432 7.39111 9.68435 8.88782 10.7959 9.99935C13.1068 12.3103 16.8091 12.2979 19.104 9.97147C20.1888 8.87174 20.8032 7.37036 20.8032 5.81943V5.32792H23.738H26.6727V12.2646V19.2012H25.3387H24.0048V16.5333V13.8653H24.3746C24.8261 13.8653 25.0719 13.6731 25.0719 13.3201C25.0719 13.1266 24.9361 12.9664 23.8527 11.883C22.7441 10.7744 22.6126 10.6638 22.404 10.6638C22.1954 10.6638 22.0639 10.7744 20.9553 11.883C19.8719 12.9664 19.7361 13.1266 19.7361 13.3201C19.7361 13.6731 19.9818 13.8653 20.4334 13.8653H20.8032V16.5333V19.2012H18.6689H16.5345V17.6004V15.9997H16.9044C17.3559 15.9997 17.6017 15.8074 17.6017 15.4544C17.6017 15.2609 17.4658 15.1008 16.3825 14.0174C15.2739 12.9088 15.1424 12.7981 14.9338 12.7981C14.7251 12.7981 14.5937 12.9088 13.4851 14.0174C12.4017 15.1008 12.2658 15.2609 12.2658 15.4544C12.2658 15.8074 12.5116 15.9997 12.9632 15.9997H13.333V17.6004V19.2012H11.1987H9.06432V16.5333V13.8653H9.43416C9.88571 13.8653 10.1315 13.6731 10.1315 13.3201C10.1315 13.1266 9.99563 12.9664 8.91225 11.883C7.80365 10.7744 7.67219 10.6638 7.46356 10.6638C7.25492 10.6638 7.12346 10.7744 6.01487 11.883C4.93149 12.9664 4.79562 13.1266 4.79562 13.3201C4.79562 13.6731 5.0414 13.8653 5.49295 13.8653H5.8628V16.5333V19.2012H4.52883H3.19486V12.2646V5.32792H6.12959H9.06432V5.81943ZM17.4757 9.00227C17.8018 9.26226 18.0686 9.4851 18.0686 9.49737C18.0686 9.50965 17.8593 9.65885 17.6034 9.82893C17.1577 10.1252 16.5743 10.3967 16.1844 10.4894C16.0023 10.5326 16.0009 10.5303 16.0009 10.189C16.0009 9.88036 16.0284 9.81519 16.2677 9.55554C16.5119 9.29074 16.5345 9.23478 16.5345 8.89776C16.5345 8.54519 16.542 8.52945 16.7087 8.52945C16.8243 8.52945 17.0822 8.68839 17.4757 9.00227ZM7.90303 12.4038L8.31276 12.8099L8.15495 12.9678L7.99714 13.1256V16.1634V19.2012H7.46356H6.92997V16.164V13.1269L6.77463 12.9792L6.61922 12.8315L7.02281 12.4146C7.24479 12.1854 7.44141 11.9978 7.45982 11.9978C7.47823 11.9978 7.67773 12.1805 7.90303 12.4038ZM22.8435 12.4038L23.2532 12.8099L23.0954 12.9678L22.9376 13.1256V16.1634V19.2012H22.404H21.8704V16.164V13.1269L21.7151 12.9792L21.5597 12.8315L21.9633 12.4146C22.1852 12.1854 22.3818 11.9978 22.4003 11.9978C22.4187 11.9978 22.6182 12.1805 22.8435 12.4038ZM15.3732 14.5382L15.783 14.9443L15.6252 15.1021L15.4674 15.2599V17.2306V19.2012H14.9338H14.4002V17.2312V15.2612L14.2448 15.1135L14.0894 14.9658L14.493 14.549C14.715 14.3197 14.9116 14.1321 14.93 14.1321C14.9484 14.1321 15.1479 14.3149 15.3732 14.5382ZM24.5383 21.8691V22.4027H25.0719H25.6055V21.8691V21.3355H25.0719H24.5383V21.8691ZM18.2291 24.7872C18.2504 24.9248 18.3283 25.5325 18.4021 26.1378C18.4759 26.7431 18.5538 27.3509 18.5751 27.4885L18.6139 27.7386H14.9338H11.2536L11.2924 27.4885C11.3138 27.3509 11.3916 26.7431 11.4655 26.1378C11.5393 25.5325 11.6171 24.9248 11.6385 24.7872L11.6773 24.5371H14.9338H18.1903L18.2291 24.7872ZM21.8704 29.8729V30.9401H14.9338H7.99714V29.8729V28.8058H14.9338H21.8704V29.8729Z" fill="black"/>
</svg>
