<svg width="32" height="32" viewBox="0 0 32 32" fill="none" xmlns="http://www.w3.org/2000/svg">
<path fill-rule="evenodd" clip-rule="evenodd" d="M2.81443 0.108032C1.85705 0.339796 0.902003 1.0914 0.435959 1.97988C-0.025311 2.85914 0.00113581 2.1892 0.000103745 13.0093C-0.00086382 22.5099 0.00236136 22.7678 0.126726 23.2542C0.196906 23.5286 0.334172 23.9033 0.431831 24.0869C0.684817 24.5628 1.4948 25.3603 1.96652 25.5981C2.85494 26.0457 2.64072 26.0269 7.11074 26.0505L11.1584 26.0719V27.4556V28.8393H10.3958C9.40387 28.8393 9.11979 28.9324 8.64014 29.4151C8.18254 29.8755 8.06218 30.225 8.06218 31.0931C8.06218 31.6645 8.07527 31.7318 8.21144 31.8598L8.36077 32H15.9407H23.5207L23.6681 31.8431C23.8074 31.6949 23.814 31.6463 23.7892 30.9562C23.7664 30.3221 23.7404 30.1827 23.5917 29.8957C23.3791 29.4856 22.9217 29.0749 22.5283 28.9409C22.3231 28.871 21.9923 28.8393 21.4676 28.8393H20.705V27.4556V26.0719L24.7527 26.0505C29.2227 26.0269 29.0085 26.0457 29.8969 25.5981C30.3686 25.3603 31.1786 24.5628 31.4316 24.0869C31.5292 23.9033 31.6665 23.5286 31.7367 23.2542C31.861 22.7679 31.8643 22.5083 31.8643 13.0286C31.8643 6.26033 31.8429 3.19798 31.794 2.96009C31.518 1.61859 30.3525 0.419265 29.0194 0.105C28.4173 -0.0369093 3.40129 -0.0340711 2.81443 0.108032ZM28.9809 1.10314C29.5467 1.27788 30.1259 1.71284 30.44 2.19888C30.9348 2.96435 30.9048 2.2241 30.8835 13.1647L30.8645 22.9371L30.7124 23.3141C30.422 24.0342 29.8372 24.595 29.0414 24.9163L28.6713 25.0658H15.964H3.2566L2.83146 24.9123C2.05508 24.6321 1.45074 24.056 1.1488 23.3082L0.998953 22.9371V13.0357C0.998953 3.60752 1.00457 3.11813 1.117 2.7958C1.3805 2.04 2.09585 1.35109 2.87584 1.10198C3.24338 0.984581 3.69601 0.980259 15.9088 0.976905C28.4062 0.973487 28.5661 0.975035 28.9809 1.10314ZM3.3233 2.53791C3.15572 2.58216 2.95247 2.72052 2.73386 2.93913C2.46004 3.21288 2.38657 3.3357 2.32471 3.62287C2.26879 3.88212 2.2544 5.98863 2.26917 11.7456L2.28904 19.5184L2.4323 19.7863C2.6055 20.1102 2.98182 20.4338 3.28886 20.5229C3.43922 20.5665 7.70708 20.5821 16.0713 20.5694L28.628 20.5505L28.9061 20.355C29.0591 20.2474 29.272 20.0175 29.3793 19.844L29.5744 19.5286L29.5944 11.7507C29.6087 6.16815 29.594 3.87799 29.5419 3.63668C29.4395 3.16147 29.0096 2.68898 28.5578 2.55475C28.2683 2.46883 26.7399 2.4578 15.9038 2.46367C7.5455 2.46818 3.49682 2.49211 3.3233 2.53791ZM28.4599 3.60378L28.6068 3.75066L28.6247 11.4088C28.6347 15.6207 28.6267 19.1329 28.607 19.2136C28.5873 19.2944 28.514 19.4177 28.4439 19.4878C28.318 19.6138 28.1775 19.6152 15.9692 19.6152C9.17823 19.6152 3.57493 19.5971 3.51752 19.5751C3.217 19.4598 3.22429 19.6605 3.22532 11.5392C3.22603 5.54794 3.24364 3.87399 3.30718 3.7484C3.35175 3.66041 3.46018 3.55185 3.54816 3.50715C3.67543 3.44258 6.22393 3.4291 16.0105 3.44142L28.313 3.45684L28.4599 3.60378ZM5.51135 5.26006L5.353 5.41835V10.0979C5.353 14.6914 5.35538 14.7797 5.482 14.9064C5.60927 15.0336 5.697 15.0354 11.9969 15.0354C18.2969 15.0354 18.3846 15.0336 18.5119 14.9064C18.6385 14.7797 18.6409 14.6914 18.6409 10.0732V5.36907L18.4709 5.23542C18.3016 5.10221 18.277 5.1017 11.9853 5.1017H5.66965L5.51135 5.26006ZM20.3602 5.28418C20.2645 5.39003 20.2535 5.68366 20.2535 8.15095V10.8998L20.3969 11.0002C20.5217 11.0876 20.9341 11.1006 23.5899 11.1006C26.5534 11.1006 26.643 11.097 26.7684 10.9716C26.8934 10.8466 26.8974 10.7566 26.8974 8.11115C26.8974 5.54691 26.8902 5.3732 26.7795 5.27296C26.6732 5.17672 26.3558 5.1662 23.5642 5.1662C20.6456 5.1662 20.4609 5.17298 20.3602 5.28418ZM17.6733 9.81051C17.6733 11.8682 17.6568 13.5518 17.6366 13.5518C17.6033 13.5518 7.53305 6.25304 7.38811 6.12383C7.35437 6.09384 9.65479 6.06926 12.5001 6.06926H17.6733V9.81051ZM25.9944 8.1334V10.1975H23.5755H21.1566V8.1334V6.06926H23.5755H25.9944V8.1334ZM11.5454 10.3477C14.3304 12.3679 16.6211 14.0313 16.6359 14.0443C16.6507 14.0572 14.3357 14.0678 11.4917 14.0678H6.32056V10.3227C6.32056 7.3438 6.33707 6.58762 6.40119 6.62619C6.44557 6.65283 8.76044 8.3275 11.5454 10.3477ZM20.4793 12.4033C20.4083 12.4435 20.3289 12.508 20.3028 12.5465C20.2768 12.585 20.2555 13.8356 20.2555 15.3256C20.2555 16.8157 20.2768 18.0667 20.3028 18.1058C20.4402 18.3115 20.6441 18.3251 23.5948 18.3251C26.4944 18.3251 26.5611 18.3222 26.7275 18.1914L26.8974 18.0577V15.3256V12.5936L26.7275 12.4599C26.561 12.329 26.4961 12.3262 23.5829 12.3281C21.4875 12.3295 20.5701 12.3517 20.4793 12.4033ZM25.9944 15.3256V17.422H23.5755H21.1566V15.3256V13.2292H23.5755H25.9944V15.3256ZM5.49323 16.9907C5.3072 17.1888 5.31449 17.4538 5.51135 17.6507L5.66965 17.8091H10.1147C14.5139 17.8091 14.5614 17.8077 14.7297 17.6753C14.9427 17.5078 14.9627 17.1626 14.7706 16.9705C14.6441 16.8439 14.5556 16.8415 10.1375 16.8415H5.63352L5.49323 16.9907ZM16.2991 16.9131C16.0013 17.0863 16.0376 17.59 16.3584 17.7362C16.4526 17.7791 16.8846 17.8091 17.4096 17.8091C18.2137 17.8091 18.3176 17.796 18.4709 17.6753C18.6839 17.5078 18.704 17.1626 18.5119 16.9705C18.394 16.8526 18.2984 16.8417 17.3992 16.8434C16.8327 16.8446 16.3661 16.8741 16.2991 16.9131ZM15.0882 22.4484C14.9595 22.5771 14.8996 22.7016 14.8996 22.8404C14.8996 23.1179 15.2027 23.4209 15.4802 23.4209C15.7577 23.4209 16.0607 23.1179 16.0607 22.8404C16.0607 22.5629 15.7577 22.2598 15.4802 22.2598C15.3414 22.2598 15.2169 22.3197 15.0882 22.4484ZM19.7375 27.4524V28.8393H15.9317H12.1259V27.4524V26.0656H15.9317H19.7375V27.4524ZM22.3887 29.9533C22.6558 30.1316 22.8334 30.4661 22.8335 30.7905L22.8337 31.0324H15.9317H9.02974L9.02987 30.7905C9.03 30.4661 9.20764 30.1316 9.47469 29.9533L9.69388 29.8069H15.9317H22.1695L22.3887 29.9533Z" fill="black"/>
</svg>
